<svg
xmlns="http://www.w3.org/2000/svg"
width="10"
height="10"
viewBox="0 0 10 10"
fill="none"
>
<path
  d="M2.25222 3.20444C2.11216 3.07105 1.92549 2.9977 1.73208 3.00006C1.53866 3.00241 1.35384 3.08029 1.21707 3.21707C1.08029 3.35384 1.00241 3.53866 1.00006 3.73208C0.997697 3.92549 1.07105 4.11216 1.20444 4.25222L4.38444 7.43222C4.48165 7.52955 4.59709 7.60676 4.72416 7.65944C4.85123 7.71212 4.98744 7.73923 5.125 7.73923C5.26256 7.73923 5.39877 7.71212 5.52584 7.65944C5.65291 7.60676 5.76835 7.52955 5.86556 7.43222L9.04445 4.25222C9.17784 4.11216 9.25119 3.92549 9.24883 3.73208C9.24648 3.53866 9.1686 3.35384 9.03182 3.21707C8.89505 3.08029 8.71023 3.00241 8.51681 3.00006C8.3234 2.9977 8.13673 3.07105 7.99667 3.20444L5.12444 6.07444L2.25222 3.20444Z"
  fill="#AEB7BF"
/>
</svg>