<svg width="8" height="20" viewBox="0 0 8 20" fill="none" xmlns="http://www.w3.org/2000/svg">
<path d="M4.70994 11.29C4.61484 11.199 4.50269 11.1276 4.37994 11.08C4.13648 10.98 3.8634 10.98 3.61994 11.08C3.49719 11.1276 3.38504 11.199 3.28994 11.29L0.789941 13.79C0.601637 13.9783 0.49585 14.2337 0.49585 14.5C0.49585 14.7663 0.601637 15.0217 0.789941 15.21C0.978245 15.3983 1.23364 15.5041 1.49994 15.5041C1.76624 15.5041 2.02164 15.3983 2.20994 15.21L2.99994 14.41V19C2.99994 19.2652 3.1053 19.5196 3.29283 19.7071C3.48037 19.8946 3.73472 20 3.99994 20C4.26516 20 4.51951 19.8946 4.70705 19.7071C4.89458 19.5196 4.99994 19.2652 4.99994 19V14.41L5.78994 15.21C5.8829 15.3037 5.99351 15.3781 6.11536 15.4289C6.23722 15.4797 6.36793 15.5058 6.49994 15.5058C6.63195 15.5058 6.76266 15.4797 6.88452 15.4289C7.00638 15.3781 7.11698 15.3037 7.20994 15.21C7.30367 15.117 7.37806 15.0064 7.42883 14.8846C7.4796 14.7627 7.50574 14.632 7.50574 14.5C7.50574 14.368 7.4796 14.2373 7.42883 14.1154C7.37806 13.9936 7.30367 13.883 7.20994 13.79L4.70994 11.29ZM3.28994 8.71C3.38504 8.80104 3.49719 8.87241 3.61994 8.92C3.73964 8.97291 3.86907 9.00023 3.99994 9.00023C4.13081 9.00023 4.26024 8.97291 4.37994 8.92C4.50269 8.87241 4.61484 8.80104 4.70994 8.71L7.20994 6.21C7.30318 6.11676 7.37714 6.00607 7.4276 5.88425C7.47806 5.76243 7.50403 5.63186 7.50403 5.5C7.50403 5.36814 7.47806 5.23757 7.4276 5.11575C7.37714 4.99393 7.30318 4.88324 7.20994 4.79C7.1167 4.69676 7.00601 4.6228 6.88419 4.57234C6.76237 4.52188 6.6318 4.49591 6.49994 4.49591C6.36808 4.49591 6.23751 4.52188 6.11569 4.57234C5.99387 4.6228 5.88318 4.69676 5.78994 4.79L4.99994 5.59V1C4.99994 0.734784 4.89458 0.48043 4.70705 0.292893C4.51951 0.105357 4.26516 0 3.99994 0C3.73472 0 3.48037 0.105357 3.29283 0.292893C3.1053 0.48043 2.99994 0.734784 2.99994 1V5.59L2.20994 4.79C2.1167 4.69676 2.00601 4.6228 1.88419 4.57234C1.76237 4.52188 1.6318 4.49591 1.49994 4.49591C1.23364 4.49591 0.978245 4.6017 0.789941 4.79C0.696702 4.88324 0.622741 4.99393 0.572281 5.11575C0.521821 5.23757 0.49585 5.36814 0.49585 5.5C0.49585 5.7663 0.601637 6.0217 0.789941 6.21L3.28994 8.71Z" fill="#51545C"/>
</svg>
