<svg width="16" height="16" viewBox="0 0 16 16" fill="none" xmlns="http://www.w3.org/2000/svg">
<path d="M3.33335 8.00004C3.15654 8.00004 2.98697 8.07028 2.86195 8.1953C2.73693 8.32033 2.66669 8.4899 2.66669 8.66671V14C2.66669 14.1769 2.73693 14.3464 2.86195 14.4714C2.98697 14.5965 3.15654 14.6667 3.33335 14.6667C3.51016 14.6667 3.67973 14.5965 3.80476 14.4714C3.92978 14.3464 4.00002 14.1769 4.00002 14V8.66671C4.00002 8.4899 3.92978 8.32033 3.80476 8.1953C3.67973 8.07028 3.51016 8.00004 3.33335 8.00004ZM6.66669 1.33337C6.48988 1.33337 6.32031 1.40361 6.19528 1.52864C6.07026 1.65366 6.00002 1.82323 6.00002 2.00004V14C6.00002 14.1769 6.07026 14.3464 6.19528 14.4714C6.32031 14.5965 6.48988 14.6667 6.66669 14.6667C6.8435 14.6667 7.01307 14.5965 7.13809 14.4714C7.26312 14.3464 7.33335 14.1769 7.33335 14V2.00004C7.33335 1.82323 7.26312 1.65366 7.13809 1.52864C7.01307 1.40361 6.8435 1.33337 6.66669 1.33337ZM13.3334 10.6667C13.1565 10.6667 12.987 10.7369 12.8619 10.862C12.7369 10.987 12.6667 11.1566 12.6667 11.3334V14C12.6667 14.1769 12.7369 14.3464 12.8619 14.4714C12.987 14.5965 13.1565 14.6667 13.3334 14.6667C13.5102 14.6667 13.6797 14.5965 13.8048 14.4714C13.9298 14.3464 14 14.1769 14 14V11.3334C14 11.1566 13.9298 10.987 13.8048 10.862C13.6797 10.7369 13.5102 10.6667 13.3334 10.6667ZM10 5.33337C9.82321 5.33337 9.65364 5.40361 9.52862 5.52864C9.40359 5.65366 9.33335 5.82323 9.33335 6.00004V14C9.33335 14.1769 9.40359 14.3464 9.52862 14.4714C9.65364 14.5965 9.82321 14.6667 10 14.6667C10.1768 14.6667 10.3464 14.5965 10.4714 14.4714C10.5964 14.3464 10.6667 14.1769 10.6667 14V6.00004C10.6667 5.82323 10.5964 5.65366 10.4714 5.52864C10.3464 5.40361 10.1768 5.33337 10 5.33337Z" fill="#9999BC"/>
</svg>
