<svg width="16" height="16" viewBox="0 0 16 16" fill="none" xmlns="http://www.w3.org/2000/svg">
<path d="M12.6666 1.33334H3.33331C2.80288 1.33334 2.29417 1.54406 1.9191 1.91913C1.54403 2.2942 1.33331 2.80291 1.33331 3.33334V10C1.33331 10.5304 1.54403 11.0392 1.9191 11.4142C2.29417 11.7893 2.80288 12 3.33331 12H11.06L13.5266 14.4733C13.5889 14.5351 13.6628 14.584 13.744 14.6172C13.8253 14.6504 13.9122 14.6672 14 14.6667C14.0874 14.6689 14.1742 14.6507 14.2533 14.6133C14.3751 14.5633 14.4793 14.4784 14.5528 14.3693C14.6264 14.2601 14.666 14.1316 14.6666 14V3.33334C14.6666 2.80291 14.4559 2.2942 14.0809 1.91913C13.7058 1.54406 13.1971 1.33334 12.6666 1.33334ZM13.3333 12.3933L11.8066 10.86C11.7444 10.7982 11.6705 10.7493 11.5893 10.7162C11.508 10.683 11.4211 10.6662 11.3333 10.6667H3.33331C3.1565 10.6667 2.98693 10.5964 2.86191 10.4714C2.73688 10.3464 2.66665 10.1768 2.66665 10V3.33334C2.66665 3.15653 2.73688 2.98696 2.86191 2.86194C2.98693 2.73691 3.1565 2.66668 3.33331 2.66668H12.6666C12.8435 2.66668 13.013 2.73691 13.1381 2.86194C13.2631 2.98696 13.3333 3.15653 13.3333 3.33334V12.3933ZM7.99998 8.00001C7.86812 8.00001 7.73923 8.03911 7.6296 8.11236C7.51997 8.18562 7.43452 8.28974 7.38406 8.41155C7.3336 8.53337 7.3204 8.66742 7.34612 8.79674C7.37185 8.92606 7.43534 9.04485 7.52857 9.13808C7.62181 9.23132 7.7406 9.29481 7.86992 9.32053C7.99924 9.34626 8.13328 9.33306 8.2551 9.2826C8.37692 9.23214 8.48104 9.14669 8.55429 9.03706C8.62755 8.92742 8.66665 8.79853 8.66665 8.66668C8.66665 8.48987 8.59641 8.3203 8.47138 8.19527C8.34636 8.07025 8.17679 8.00001 7.99998 8.00001ZM7.99998 4.00001C7.82317 4.00001 7.6536 4.07025 7.52857 4.19527C7.40355 4.3203 7.33331 4.48987 7.33331 4.66668V6.66668C7.33331 6.84349 7.40355 7.01306 7.52857 7.13808C7.6536 7.26311 7.82317 7.33334 7.99998 7.33334C8.17679 7.33334 8.34636 7.26311 8.47138 7.13808C8.59641 7.01306 8.66665 6.84349 8.66665 6.66668V4.66668C8.66665 4.48987 8.59641 4.3203 8.47138 4.19527C8.34636 4.07025 8.17679 4.00001 7.99998 4.00001Z" fill="#D53120"/>
</svg>
