<svg width="16" height="16" viewBox="0 0 16 16" fill="none" xmlns="http://www.w3.org/2000/svg">
<path d="M5.99998 7.33331C6.13184 7.33331 6.26073 7.29421 6.37036 7.22096C6.48 7.14771 6.56544 7.04359 6.6159 6.92177C6.66636 6.79995 6.67956 6.66591 6.65384 6.53659C6.62812 6.40727 6.56462 6.28848 6.47139 6.19524C6.37815 6.10201 6.25936 6.03851 6.13004 6.01279C6.00072 5.98707 5.86668 6.00027 5.74486 6.05073C5.62304 6.10119 5.51892 6.18663 5.44567 6.29627C5.37242 6.4059 5.33332 6.53479 5.33332 6.66665C5.33332 6.84346 5.40355 7.01303 5.52858 7.13805C5.6536 7.26308 5.82317 7.33331 5.99998 7.33331ZM9.99998 7.33331C10.1318 7.33331 10.2607 7.29421 10.3704 7.22096C10.48 7.14771 10.5654 7.04359 10.6159 6.92177C10.6664 6.79995 10.6796 6.66591 10.6538 6.53659C10.6281 6.40727 10.5646 6.28848 10.4714 6.19524C10.3782 6.10201 10.2594 6.03851 10.13 6.01279C10.0007 5.98707 9.86668 6.00027 9.74486 6.05073C9.62304 6.10119 9.51892 6.18663 9.44567 6.29627C9.37241 6.4059 9.33332 6.53479 9.33332 6.66665C9.33332 6.84346 9.40355 7.01303 9.52858 7.13805C9.6536 7.26308 9.82317 7.33331 9.99998 7.33331ZM10.6666 9.33331C10.6666 9.1565 10.5964 8.98693 10.4714 8.86191C10.3464 8.73688 10.1768 8.66665 9.99998 8.66665C9.82317 8.66665 9.6536 8.73688 9.52858 8.86191C9.40355 8.98693 9.33332 9.1565 9.33332 9.33331H8.66665C8.66665 9.1565 8.59641 8.98693 8.47139 8.86191C8.34636 8.73688 8.17679 8.66665 7.99998 8.66665C7.82317 8.66665 7.6536 8.73688 7.52858 8.86191C7.40355 8.98693 7.33332 9.1565 7.33332 9.33331H6.66665C6.66665 9.1565 6.59641 8.98693 6.47139 8.86191C6.34636 8.73688 6.17679 8.66665 5.99998 8.66665C5.82317 8.66665 5.6536 8.73688 5.52858 8.86191C5.40355 8.98693 5.33332 9.1565 5.33332 9.33331C5.1565 9.33331 4.98694 9.40355 4.86191 9.52858C4.73689 9.6536 4.66665 9.82317 4.66665 9.99998C4.66665 10.1768 4.73689 10.3464 4.86191 10.4714C4.98694 10.5964 5.1565 10.6666 5.33332 10.6666C5.33332 10.8435 5.40355 11.013 5.52858 11.1381C5.6536 11.2631 5.82317 11.3333 5.99998 11.3333C6.17679 11.3333 6.34636 11.2631 6.47139 11.1381C6.59641 11.013 6.66665 10.8435 6.66665 10.6666H7.33332C7.33332 10.8435 7.40355 11.013 7.52858 11.1381C7.6536 11.2631 7.82317 11.3333 7.99998 11.3333C8.17679 11.3333 8.34636 11.2631 8.47139 11.1381C8.59641 11.013 8.66665 10.8435 8.66665 10.6666H9.33332C9.33332 10.8435 9.40355 11.013 9.52858 11.1381C9.6536 11.2631 9.82317 11.3333 9.99998 11.3333C10.1768 11.3333 10.3464 11.2631 10.4714 11.1381C10.5964 11.013 10.6666 10.8435 10.6666 10.6666C10.8435 10.6666 11.013 10.5964 11.1381 10.4714C11.2631 10.3464 11.3333 10.1768 11.3333 9.99998C11.3333 9.82317 11.2631 9.6536 11.1381 9.52858C11.013 9.40355 10.8435 9.33331 10.6666 9.33331ZM7.99998 1.33331C6.68144 1.33331 5.39251 1.72431 4.29618 2.45685C3.19985 3.18939 2.34537 4.23058 1.84079 5.44876C1.3362 6.66693 1.20418 8.00738 1.46141 9.30058C1.71865 10.5938 2.35359 11.7817 3.28594 12.714C4.21829 13.6464 5.40617 14.2813 6.69938 14.5385C7.99259 14.7958 9.33303 14.6638 10.5512 14.1592C11.7694 13.6546 12.8106 12.8001 13.5431 11.7038C14.2757 10.6075 14.6666 9.31852 14.6666 7.99998C14.6666 7.1245 14.4942 6.25759 14.1592 5.44876C13.8241 4.63992 13.3331 3.90499 12.714 3.28593C12.095 2.66688 11.36 2.17581 10.5512 1.84078C9.74237 1.50575 8.87546 1.33331 7.99998 1.33331ZM7.99998 13.3333C6.94515 13.3333 5.914 13.0205 5.03694 12.4345C4.15988 11.8484 3.47629 11.0155 3.07263 10.041C2.66896 9.06642 2.56334 7.99406 2.76913 6.9595C2.97492 5.92493 3.48287 4.97462 4.22875 4.22874C4.97463 3.48286 5.92494 2.97491 6.9595 2.76912C7.99407 2.56334 9.06642 2.66895 10.041 3.07262C11.0155 3.47629 11.8485 4.15988 12.4345 5.03694C13.0205 5.914 13.3333 6.94515 13.3333 7.99998C13.3333 9.41447 12.7714 10.771 11.7712 11.7712C10.771 12.7714 9.41447 13.3333 7.99998 13.3333Z" fill="#9999BC"/>
</svg>
